<svg xmlns="http://www.w3.org/2000/svg" width="18" height="18" viewBox="0 0 18 18">
    <path fill="#D9DDE1" fill-rule="nonzero" d="M16.169 10.83a.385.385 0 1 1 0 .77c-1.461 0-2.333.26-3.75.957l-.325.16c-1.279.627-2.099.875-3.333.875-1.355 0-2.428-.254-3.991-.826-1.632-.598-1.682-.614-2.243-.715a3.948 3.948 0 0 0-.696-.065.385.385 0 0 1 0-.77c.271 0 .546.027.831.077.628.112.677.129 2.372.75 1.486.544 2.48.78 3.727.78 1.095 0 1.812-.218 2.994-.797l.325-.16c1.512-.744 2.49-1.036 4.089-1.036zm0-3.211a.385.385 0 0 1 0 .77c-1.461 0-2.333.26-3.75.956l-.325.161c-1.279.626-2.099.875-3.333.875-1.355 0-2.428-.254-3.991-.826-1.632-.598-1.682-.615-2.243-.715a3.948 3.948 0 0 0-.696-.065.385.385 0 1 1 0-.77c.271 0 .546.026.831.077.628.112.677.129 2.372.75 1.486.544 2.48.779 3.727.779 1.095 0 1.812-.217 2.994-.797l.325-.16c1.512-.743 2.49-1.035 4.089-1.035zm0-3.211a.385.385 0 0 1 0 .77c-1.461 0-2.333.26-3.75.956l-.325.16c-1.279.627-2.099.876-3.333.876-1.355 0-2.428-.254-3.991-.827-1.632-.597-1.682-.614-2.243-.714a3.948 3.948 0 0 0-.696-.065.385.385 0 1 1 0-.77c.271 0 .546.026.831.077.628.112.677.128 2.372.75 1.486.543 2.48.779 3.727.779 1.095 0 1.812-.218 2.994-.797l.325-.16c1.512-.743 2.49-1.035 4.089-1.035z"/>
</svg>
