<svg xmlns="http://www.w3.org/2000/svg" width="18" height="18" viewBox="0 0 18 18">
    <path fill="#D9DDE1" fill-rule="nonzero" d="M13.24 12.303c.897 0 1.624.716 1.624 1.599 0 .882-.727 1.598-1.624 1.598-.896 0-1.623-.716-1.623-1.598 0-.206.17-.373.378-.373.21 0 .379.167.379.373 0 .47.388.852.866.852a.86.86 0 0 0 .867-.852.86.86 0 0 0-.867-.853H3.577a.376.376 0 0 1-.379-.373c0-.206.17-.373.379-.373h9.663zM15.46 5.27C16.862 5.27 18 6.392 18 7.775c0 1.383-1.138 2.504-2.541 2.504H.379A.376.376 0 0 1 0 9.906c0-.206.17-.373.378-.373h15.08c.986 0 1.785-.787 1.785-1.758s-.799-1.759-1.784-1.759c-.986 0-1.784.788-1.784 1.759 0 .206-.17.373-.379.373a.376.376 0 0 1-.378-.373c0-1.383 1.137-2.505 2.54-2.505zM9.079 2.5c1.403 0 2.541 1.121 2.541 2.504 0 1.328-1.048 2.414-2.374 2.499l-.167.005H2.394a.376.376 0 0 1-.378-.373c0-.18.13-.33.302-.365l.076-.008h6.685c.985 0 1.784-.787 1.784-1.758 0-.97-.799-1.758-1.784-1.758-.986 0-1.784.787-1.784 1.758 0 .206-.17.373-.379.373a.376.376 0 0 1-.378-.373c0-1.383 1.137-2.504 2.54-2.504z"/>
</svg>
